<?xml version="1.0" encoding="utf-8"?>
<!-- Generator: Adobe Illustrator 23.0.3, SVG Export Plug-In . SVG Version: 6.00 Build 0)  -->
<svg version="1.1" id="圖層_1" xmlns="http://www.w3.org/2000/svg" xmlns:xlink="http://www.w3.org/1999/xlink" x="0px" y="0px"
	 viewBox="0 0 74 16" style="enable-background:new 0 0 74 16;" xml:space="preserve">
<style type="text/css">
	.st0{fill:#FFFFFF;}
</style>
<g>
	<path class="st0" d="M60.6,8.1l0,2.6c0,3.1-2.1,4.8-5.1,4.9c-0.2,0-0.5,0-0.6,0c-3-0.1-5-1.9-5-4.9l0-2.6c0-3.1,2.1-4.8,5.1-4.9
		c0.1,0,0.4,0,0.6,0C58.5,3.2,60.6,5,60.6,8.1 M55.1,5.7c-1.2,0.1-2.3,0.7-2.3,2.3l0,2.7c0,1.6,1.1,2.3,2.3,2.3c0.1,0,0.4,0,0.4,0
		c1.1,0,2.3-0.7,2.3-2.3l0-2.6c0-1.7-1.1-2.3-2.3-2.4C55.3,5.7,55.2,5.7,55.1,5.7"/>
	<path class="st0" d="M65.1,8.7c0,0,4.4-4.9,4.6-5.2l3.6,0l-5.3,6l5.5,6.1h-3.7l-4.8-5.3l0,5.3l-2.9,0l0-15l2.9,0L65.1,8.7z"/>
	<path class="st0" d="M23.9,10.2l0-2.1c0-3.1-2.1-4.8-5.1-4.9l-0.6,0c-3,0.1-5.1,1.8-5.1,4.9l0,2.6c0,2.9,2.2,4.8,5,4.9
		c0.3,0,0.4,0,0.7,0c3.5,0,4.9-1.8,5-3.8l-2.7,0c-0.1,0.4-0.2,1.4-2.4,1.4c-0.4,0-0.9-0.1-1.3-0.2c-1.7-0.6-1.4-2.6-1.4-2.7
		L23.9,10.2z M16,7.9c0-1.6,1.1-2.2,2.3-2.2c0.1,0,0.3,0,0.4,0C19.9,5.7,21,6.3,21,7.9v0.2h-5L16,7.9z"/>
	<path class="st0" d="M36.1,10.2l0-2.1c0-3.1-2.2-4.8-5.1-4.9l-0.6,0c-3,0.1-5.1,1.8-5.1,4.9v2.6c0,2.9,2.2,4.8,5,4.9
		c0.3,0,0.5,0,0.7,0c3.6,0,4.8-1.8,5-3.9l-2.7,0c-0.1,0.4-0.2,1.4-2.4,1.4c-0.4,0-0.9-0.1-1.3-0.2c-1.7-0.5-1.4-2.6-1.4-2.7
		L36.1,10.2z M28.2,7.8c0-1.6,1.1-2.2,2.3-2.3c0.1,0,0.3,0,0.4,0c1.3,0.1,2.3,0.7,2.3,2.3V8h-5V7.8z"/>
	<path class="st0" d="M43.3,3.1c-1.3,0-2.3,0.4-2.8,0.8V0.2l-2.9,0l0,15h0.5c0,0,1.3-0.7,1.3-0.8c0.2,0.2,1.5,1.1,3.2,1.2
		c0.2,0,0.4,0,0.7,0c2.9-0.1,5.1-1.9,5.1-4.9l0-2.6C48.4,5.1,46.3,3.1,43.3,3.1z M45.5,10.7c0,1.6-1.1,2.3-2.3,2.3
		c-0.1,0-0.4,0-0.4,0c-1.2-0.1-2.3-0.7-2.3-2.3V8c0-1.7,1.1-2.3,2.3-2.4c0.1,0,0.3,0,0.4,0c1.1,0,2.3,0.7,2.3,2.3L45.5,10.7z"/>
	<path class="st0" d="M12.7,15.6L7.1,9.4c0.3,0,0.6,0,0.8,0.1c1.9,0,4.3-1.2,4.3-4.3c0-3.6-3.1-4.6-5.7-4.6L0,0.5l0,15l2.9,0l0-6.7
		l6,6.7L12.7,15.6z M3,3.1l3.6,0c1.6,0,3,0.5,3,2c0,1.5-0.9,2.1-3.1,2.1L3,7.3L3,3.1z"/>
</g>
</svg>
