<?xml version="1.0" encoding="utf-8"?>
<!-- Generator: Adobe Illustrator 23.0.1, SVG Export Plug-In . SVG Version: 6.00 Build 0)  -->
<svg version="1.1" id="Layer_1" xmlns="http://www.w3.org/2000/svg" xmlns:xlink="http://www.w3.org/1999/xlink" x="0px" y="0px"
	 viewBox="0 0 327.28 39.44" style="enable-background:new 0 0 327.28 39.44;" xml:space="preserve">
<style type="text/css">
	.st0{fill:#007FC7;}
</style>
<g>
	<path class="st0" d="M20.25,27.03c-0.86,0.67-2.21,1.08-3.6,1.08c-3.36,0-6.22-2.71-6.22-6.26c0-3.55,2.86-6.34,6.22-6.34
		c1.39,0,2.74,0.43,3.6,1.1v-0.98h3.34v12.31h-3.34V27.03z M13.7,21.85c0,1.85,1.42,3.31,3.24,3.31c1.92,0,3.36-1.46,3.36-3.31
		c0-1.82-1.49-3.31-3.36-3.31C15.12,18.53,13.7,20.02,13.7,21.85z"/>
	<path class="st0" d="M34.53,27.03c-0.86,0.67-2.21,1.08-3.6,1.08c-3.36,0-6.22-2.71-6.22-6.26c0-3.55,2.86-6.34,6.22-6.34
		c1.39,0,2.74,0.43,3.6,1.1V11.5h3.34v16.44h-3.34V27.03z M34.58,21.85c0-1.82-1.49-3.31-3.36-3.31c-1.82,0-3.24,1.49-3.24,3.31
		c0,1.85,1.42,3.31,3.24,3.31C33.14,25.16,34.58,23.69,34.58,21.85z"/>
	<path class="st0" d="M39.21,14.57V11.5h3.34v3.07H39.21z M39.21,27.94V15.63h3.34v12.31H39.21z"/>
	<path class="st0" d="M53.49,27.03c-0.86,0.67-2.21,1.08-3.6,1.08c-3.36,0-6.22-2.71-6.22-6.26c0-3.55,2.86-6.34,6.22-6.34
		c1.39,0,2.74,0.43,3.6,1.1V11.5h3.34v16.44h-3.34V27.03z M53.54,21.85c0-1.82-1.49-3.31-3.36-3.31c-1.82,0-3.24,1.49-3.24,3.31
		c0,1.85,1.42,3.31,3.24,3.31C52.1,25.16,53.54,23.69,53.54,21.85z"/>
	<path class="st0" d="M67.77,27.03c-0.86,0.67-2.21,1.08-3.6,1.08c-3.36,0-6.22-2.71-6.22-6.26c0-3.55,2.86-6.34,6.22-6.34
		c1.39,0,2.74,0.43,3.6,1.1v-0.98h3.34v12.31h-3.34V27.03z M61.22,21.85c0,1.85,1.42,3.31,3.24,3.31c1.92,0,3.36-1.46,3.36-3.31
		c0-1.82-1.49-3.31-3.36-3.31C62.64,18.53,61.22,20.02,61.22,21.85z"/>
	<path class="st0" d="M75.64,24.08c0,0.74,0.5,1.66,2.28,1.68c1.25,0,1.82-0.58,1.82-1.15c0-2.16-7.27,0.05-7.27-5.14
		c0-2.23,1.97-3.98,5.09-3.98c3.12,0,5.09,1.61,5.28,4.08h-3.34c-0.05-0.89-0.41-1.56-1.9-1.56c-0.96,0-1.75,0.31-1.75,1.08
		c0,2.21,7.44,0.26,7.44,4.94c0,2.93-2.45,4.15-5.54,4.15c-3.36,0-5.42-1.75-5.5-4.1H75.64z"/>
	<path class="st0" d="M100.87,27.94h-3.98l-2.16-3.72l-2.18,3.72h-3.89l3.96-6.26l-3.86-6.05h3.96l2.06,3.5l2.04-3.5h3.89l-3.84,6
		L100.87,27.94z"/>
	<path class="st0" d="M106.82,11.5h6.77c3.67,0,5.3,2.04,5.3,4.46c0,1.46-0.7,2.64-2.06,3.34c2.06,0.62,3.17,2.02,3.17,3.94
		c0,2.69-1.9,4.7-5.78,4.7h-7.39V11.5z M110.54,14.69v3.36h2.78c1.27,0,1.92-0.72,1.92-1.7c0-0.96-0.65-1.66-1.92-1.66H110.54z
		 M110.54,21.2v3.55h3.48c1.44,0,2.26-0.72,2.26-1.73c0-1.08-0.82-1.82-2.28-1.82H110.54z"/>
	<path class="st0" d="M131.3,25.11h-6.46l-0.94,2.83h-3.82l5.81-16.44h4.56l5.78,16.44h-4.01L131.3,25.11z M128.06,15.39l-2.14,6.43
		h4.27L128.06,15.39z"/>
	<path class="st0" d="M141.12,23.36v4.58h-3.72V11.5h7.08c3.74,0,5.86,2.62,5.86,5.81c0,3.36-2.33,6.05-6.19,6.05H141.12z
		 M141.12,14.91v5.04h2.93c1.58,0,2.54-1.06,2.54-2.54s-0.94-2.5-2.66-2.5H141.12z"/>
	<path class="st0" d="M151.94,11.5h12.02v3.36h-8.3v3.1h7.68v3.26h-7.68v3.36h8.33v3.36h-12.05V11.5z"/>
	<path class="st0" d="M169.7,22.81h3.72c0.07,1.25,0.79,2.5,3.02,2.5c1.87,0,2.83-0.74,2.83-1.78c0-1.27-1.61-1.61-3.48-2.02
		c-2.62-0.62-5.81-1.39-5.81-5.3c0-2.88,2.23-5.02,6.17-5.02c4.01,0,6.22,2.18,6.46,5.4h-3.74c-0.07-1.32-0.79-2.38-2.81-2.38
		c-1.49,0-2.47,0.6-2.47,1.68c0,1.39,1.63,1.78,3.5,2.21c2.69,0.6,5.9,1.27,5.9,4.97c0,3-2.35,5.18-6.65,5.18
		C172.19,28.25,169.91,26.19,169.7,22.81z"/>
	<path class="st0" d="M184.48,11.5h6.77c3.67,0,5.3,2.04,5.3,4.46c0,1.46-0.7,2.64-2.06,3.34c2.06,0.62,3.17,2.02,3.17,3.94
		c0,2.69-1.9,4.7-5.78,4.7h-7.39V11.5z M188.2,14.69v3.36h2.78c1.27,0,1.92-0.72,1.92-1.7c0-0.96-0.65-1.66-1.92-1.66H188.2z
		 M188.2,21.2v3.55h3.48c1.44,0,2.26-0.72,2.26-1.73c0-1.08-0.82-1.82-2.28-1.82H188.2z"/>
	<path class="st0" d="M203.8,21.41V11.5h3.72v9.41c0,2.5,1.22,3.86,3.38,3.86c2.14,0,3.34-1.37,3.34-3.86V11.5h3.72v9.91
		c0,4.08-2.5,6.82-7.03,6.82C206.32,28.23,203.8,25.49,203.8,21.41z"/>
	<path class="st0" d="M219.55,27.94V11.5h3.36v16.44H219.55z"/>
	<path class="st0" d="M232.19,15.63v2.98h-3.02v4.94c0,1.1,0.5,1.54,1.63,1.54h1.39v2.86h-1.63c-3.26,0-4.73-1.46-4.73-4.22v-5.11
		h-1.78v-2.98h1.78v-3.17h3.34v3.17H232.19z"/>
	<path class="st0" d="M233.44,27.94V15.63h3.34v1.68c0.82-1.13,2.04-1.85,3.58-1.85v3.36c-2.45,0-3.55,1.37-3.55,3.5v5.62H233.44z"
		/>
	<path class="st0" d="M250.31,27.03c-0.86,0.67-2.21,1.08-3.6,1.08c-3.36,0-6.22-2.71-6.22-6.26c0-3.55,2.86-6.34,6.22-6.34
		c1.39,0,2.74,0.43,3.6,1.1v-0.98h3.34v12.31h-3.34V27.03z M243.76,21.85c0,1.85,1.42,3.31,3.24,3.31c1.92,0,3.36-1.46,3.36-3.31
		c0-1.82-1.49-3.31-3.36-3.31C245.18,18.53,243.76,20.02,243.76,21.85z"/>
	<path class="st0" d="M258.33,27.03v0.91h-3.34V11.5h3.34v5.11c0.86-0.67,2.21-1.1,3.6-1.1c3.36,0,6.22,2.78,6.22,6.34
		c0,3.55-2.86,6.26-6.22,6.26C260.54,28.11,259.19,27.7,258.33,27.03z M264.88,21.85c0-1.82-1.42-3.31-3.24-3.31
		c-1.87,0-3.36,1.49-3.36,3.31c0,1.85,1.44,3.31,3.36,3.31C263.47,25.16,264.88,23.69,264.88,21.85z"/>
	<path class="st0" d="M282.28,21.82c0,3.58-2.83,6.41-6.62,6.41s-6.6-2.81-6.6-6.41c0-3.58,2.83-6.43,6.6-6.43
		C279.45,15.39,282.28,18.22,282.28,21.82z M272.35,21.82c0,1.97,1.37,3.43,3.24,3.43c1.87,0,3.38-1.46,3.38-3.43
		c0-1.97-1.44-3.41-3.31-3.41S272.35,19.85,272.35,21.82z"/>
	<path class="st0" d="M296.37,21.82c0,3.58-2.83,6.41-6.62,6.41s-6.6-2.81-6.6-6.41c0-3.58,2.83-6.43,6.6-6.43
		C293.54,15.39,296.37,18.22,296.37,21.82z M286.43,21.82c0,1.97,1.37,3.43,3.24,3.43c1.87,0,3.38-1.46,3.38-3.43
		c0-1.97-1.44-3.41-3.31-3.41S286.43,19.85,286.43,21.82z"/>
	<path class="st0" d="M300.64,24.08c0,0.74,0.5,1.66,2.28,1.68c1.25,0,1.82-0.58,1.82-1.15c0-2.16-7.27,0.05-7.27-5.14
		c0-2.23,1.97-3.98,5.09-3.98c3.12,0,5.09,1.61,5.28,4.08h-3.34c-0.05-0.89-0.41-1.56-1.9-1.56c-0.96,0-1.75,0.31-1.75,1.08
		c0,2.21,7.44,0.26,7.44,4.94c0,2.93-2.45,4.15-5.54,4.15c-3.36,0-5.42-1.75-5.5-4.1H300.64z"/>
	<path class="st0" d="M316.84,15.63v2.98h-3.02v4.94c0,1.1,0.5,1.54,1.63,1.54h1.39v2.86h-1.63c-3.26,0-4.73-1.46-4.73-4.22v-5.11
		h-1.78v-2.98h1.78v-3.17h3.34v3.17H316.84z"/>
</g>
</svg>
