<?xml version="1.0" encoding="utf-8"?>
<!-- Generator: Adobe Illustrator 23.0.1, SVG Export Plug-In . SVG Version: 6.00 Build 0)  -->
<svg version="1.1" id="圖層_1" xmlns="http://www.w3.org/2000/svg" xmlns:xlink="http://www.w3.org/1999/xlink" x="0px" y="0px"
	 viewBox="0 0 100 100" style="enable-background:new 0 0 100 100;" xml:space="preserve">
<style type="text/css">
	.st0{fill:#FFFFFF;}
</style>
<g id="Layer_1">
	<g>
		<path class="st0" d="M88.91,46.99c-0.54,1.07-1.54,2.6-2.45,3.49H13.89c-0.55-0.72-1.81-2.33-2.36-3.49H88.91z M83.49,54.17H16.87
			c1.08,1.26,2.26,2.42,3.43,3.23h59.48C81.22,56.58,82.59,55.42,83.49,54.17 M75.27,60.8H57c-0.54,2.87-0.54,5.56-0.54,7.53
			C61.8,67.97,68.85,65.55,75.27,60.8 M95.69,23.5c-8.32,0.54-20.25,6.1-28.02,15.15c-1.45,1.61-2.71,3.23-3.71,4.93h26.75
			C94.33,36.42,96.23,29.33,95.69,23.5 M43.81,68.33c0.09-1.97,0.09-4.65-0.28-7.53H25.1C31.61,65.55,38.65,67.97,43.81,68.33
			 M50.22,68.87c1.89-1.97,3.89-4.66,5.69-8.07H44.44C46.34,64.2,48.15,66.9,50.22,68.87 M36.58,43.59c-1-1.7-2.35-3.32-3.7-4.93
			C25.1,29.6,13.07,24.04,4.85,23.5c-0.54,5.83,1.26,12.91,4.88,20.08L36.58,43.59L36.58,43.59z M61.8,43.59
			c0.18-2.06,0.36-4.04,0.36-6.37c0-12.55-5.69-25.55-11.93-31.38C43.9,11.67,38.3,24.67,38.3,37.22c0,2.33,0,4.3,0.36,6.37H61.8z
			 M88.74,94.16c3.8,0,6.96-1.53,6.96-5.3c0-2.15-1.54-3.58-3.98-4.21c-2.53-0.63-5.79-0.54-5.79-2.15
			c0.18-1.08,1.18-1.35,2.71-1.35c2.35,0,2.44,1.26,2.54,2.06h3.88c-0.27-2.96-2.71-5.02-6.6-5.02c-4.07,0-6.42,2.16-6.42,4.93
			c0,1.61,0.81,3.05,2.17,3.76c0.99,0.45,2.35,0.81,3.98,1.07c1.71,0.18,3.26,0.36,3.35,1.52c0,0.81-0.82,1.8-2.62,1.8
			c-2.62,0-3.17-1.44-3.17-2.43H81.7C81.79,92,84.4,94.16,88.74,94.16 M67.48,86.17c0,2.33,2.09,4.39,4.53,4.39
			c2.34,0,4.34-2.06,4.34-4.39c0-2.42-1.99-4.49-4.34-4.49C69.57,81.69,67.48,83.75,67.48,86.17 M71.83,94.16
			c-4.43,0-8.14-3.6-8.14-7.99c0-4.49,3.71-7.98,8.14-7.98c1.72,0,3.25,0.45,4.52,1.35v-1.17h3.88v15.42h-3.88V92.8
			C75.08,93.62,73.55,94.16,71.83,94.16 M49.68,86.17c0,2.33,2.08,4.39,4.43,4.39c2.44,0,4.52-2.06,4.52-4.39
			c0-2.42-2.08-4.49-4.52-4.49C51.76,81.69,49.68,83.75,49.68,86.17 M58.63,73.08h3.8v20.71h-3.8V92.8
			c-1.26,0.81-2.9,1.35-4.61,1.35c-4.44,0-8.04-3.6-8.04-7.99c0-4.49,3.61-7.98,8.04-7.98c1.71,0,3.25,0.45,4.61,1.35V73.08z
			 M40.55,73.08h3.8v3.86h-3.8V73.08z M44.35,93.79h-3.8V78.37h3.8V93.79z M25.73,86.17c0,2.33,2.08,4.39,4.62,4.39
			c2.35,0,4.43-2.06,4.43-4.39c0-2.42-2.08-4.49-4.43-4.49C27.81,81.69,25.73,83.75,25.73,86.17 M30.16,94.16
			c-4.43,0-8.14-3.6-8.14-7.99c0-4.49,3.7-7.98,8.14-7.98c1.72,0,3.25,0.45,4.61,1.35v-6.46h3.88v20.71h-3.88V92.8
			C33.41,93.62,31.88,94.16,30.16,94.16 M7.92,86.17c0,2.33,2.08,4.39,4.43,4.39c2.53,0,4.61-2.06,4.61-4.39
			c0-2.42-2.08-4.49-4.61-4.49C10,81.69,7.92,83.75,7.92,86.17 M12.26,94.16c-4.43,0-8.04-3.6-8.04-7.99c0-4.49,3.61-7.98,8.04-7.98
			c1.72,0,3.35,0.45,4.7,1.35v-1.17h3.79v15.42h-3.79V92.8C15.61,93.62,14.07,94.16,12.26,94.16"/>
	</g>
</g>
</svg>
